<svg width="24" height="24" viewBox="0 0 24 24" fill="none" xmlns="http://www.w3.org/2000/svg">
<g id="mi:shopping-cart">
<path id="Vector" d="M4.142 4.00002L6.01 16.136C6.04361 16.3779 6.16438 16.5992 6.34962 16.7582C6.53487 16.9173 6.77184 17.0033 7.016 17H18C18.2151 17 18.4245 16.9307 18.5971 16.8022C18.7697 16.6738 18.8963 16.4931 18.958 16.287L21.958 6.28702C22.0027 6.13771 22.0119 5.98001 21.9849 5.82651C21.9579 5.673 21.8953 5.52795 21.8022 5.40292C21.7092 5.27789 21.5882 5.17634 21.4489 5.10639C21.3096 5.03644 21.1559 5.00001 21 5.00002H6.32L5.99 2.86202C5.95667 2.61726 5.83331 2.39371 5.644 2.23502C5.45967 2.07943 5.22518 1.99593 4.984 2.00002H3C2.86868 2.00002 2.73864 2.02589 2.61732 2.07614C2.49599 2.1264 2.38575 2.20006 2.29289 2.29291C2.20003 2.38577 2.12638 2.49601 2.07612 2.61734C2.02587 2.73866 2 2.8687 2 3.00002C2 3.13134 2.02587 3.26138 2.07612 3.3827C2.12638 3.50403 2.20003 3.61427 2.29289 3.70713C2.38575 3.79999 2.49599 3.87365 2.61732 3.9239C2.73864 3.97416 2.86868 4.00002 3 4.00002H4.142ZM7.858 15L6.628 7.00002H19.656L17.256 15H7.858ZM10 20C10 20.5305 9.78929 21.0392 9.41421 21.4142C9.03914 21.7893 8.53043 22 8 22C7.46957 22 6.96086 21.7893 6.58579 21.4142C6.21071 21.0392 6 20.5305 6 20C6 19.4696 6.21071 18.9609 6.58579 18.5858C6.96086 18.2107 7.46957 18 8 18C8.53043 18 9.03914 18.2107 9.41421 18.5858C9.78929 18.9609 10 19.4696 10 20ZM19 20C19 20.5305 18.7893 21.0392 18.4142 21.4142C18.0391 21.7893 17.5304 22 17 22C16.4696 22 15.9609 21.7893 15.5858 21.4142C15.2107 21.0392 15 20.5305 15 20C15 19.4696 15.2107 18.9609 15.5858 18.5858C15.9609 18.2107 16.4696 18 17 18C17.5304 18 18.0391 18.2107 18.4142 18.5858C18.7893 18.9609 19 19.4696 19 20Z" fill="#162521"/>
</g>
</svg>
