<svg width="164" height="26" viewBox="0 0 164 26" fill="none" xmlns="http://www.w3.org/2000/svg">
<g id="Neuberger Berman svg" clip-path="url(#clip0_19_463)">
<g id="Group 5252">
<g id="Group 5251">
<path id="Path 9095" d="M163.62 0H0V26H164V0H163.62ZM163.246 0.747239V25.2539H95.2151V0.747239H163.246ZM0.756721 25.2539V0.747239H94.4351V25.2539H0.756721Z" fill="#162521"/>
<path id="Path 9096" d="M15.0898 10.3015L14.9887 16.8129C14.9887 17.045 14.8817 17.162 14.7487 17.162C14.5821 17.1353 14.4323 17.0466 14.33 16.9142C13.619 16.2454 12.2688 14.8755 11.0938 13.7275C9.86063 12.5225 8.62785 11.1546 8.42433 10.9447H8.35843L8.49837 15.443C8.52125 16.3138 8.67476 16.6178 8.97171 16.6614C9.20043 16.6974 9.30821 16.7142 9.49739 16.741C9.62028 16.7555 9.67494 16.8083 9.68036 16.8767C9.68036 16.9666 9.57686 17.027 9.41985 17.027C8.68329 17.027 8.23476 16.9945 8.02193 16.9945C7.92192 16.9945 7.39082 17.027 6.80389 17.027C6.65735 17.027 6.55579 16.9834 6.55579 16.8832C6.55579 16.8148 6.62634 16.7643 6.73566 16.7486C6.89383 16.7249 6.98261 16.7161 7.14853 16.6924C7.4509 16.6488 7.58426 16.2909 7.5955 15.3203L7.65908 8.78329C7.66141 8.5049 7.71258 8.40088 7.84206 8.40088C7.95448 8.40088 8.07737 8.53434 8.26849 8.73855C8.40146 8.8831 10.1363 10.6797 11.7865 12.2977C12.5576 13.0552 14.0397 14.6182 14.2319 14.7952H14.3048L14.1854 10.1722C14.1637 9.30491 14.0079 8.99974 13.7121 8.95385C13.4834 8.92135 13.3756 8.90337 13.1887 8.87737C13.0635 8.86169 13.01 8.80892 13.0034 8.73932C13.0034 8.64945 13.1058 8.59017 13.2639 8.59017C14.0005 8.59017 14.4502 8.62268 14.663 8.62268C14.763 8.62268 15.2922 8.59017 15.8811 8.59017C16.028 8.59017 16.1292 8.63377 16.1292 8.73473C16.1292 8.80203 16.0586 8.85251 15.9493 8.86819C15.79 8.8919 15.7023 8.90069 15.5364 8.92555C15.2317 8.97221 15.1011 9.33091 15.0898 10.3015Z" fill="#162521"/>
<path id="Path 9097" d="M18.7676 16.6882C18.6401 16.7073 18.5517 16.7184 18.3648 16.7444C18.2408 16.7624 18.1873 16.8151 18.183 16.8836C18.183 16.9734 18.283 17.0339 18.4435 17.0339C19.1762 17.0339 19.6674 16.9991 19.8802 16.9991C20.5423 16.9991 21.5022 17.0675 23.2242 17.0675C23.6483 17.0675 23.7487 17.0675 23.8259 16.7757C23.9025 16.3497 23.95 15.919 23.9681 15.4866C23.9681 15.3757 23.9259 15.2858 23.8375 15.2858C23.76 15.2904 23.6929 15.3363 23.6727 15.4587C23.6681 15.6355 23.6174 15.8081 23.5256 15.9599C23.4337 16.1118 23.3037 16.2377 23.1482 16.3256C22.8143 16.4395 22.4613 16.4887 22.1085 16.4706C20.9455 16.4706 20.8094 16.3046 20.7846 15.5348C20.7734 15.2105 20.7846 14.1849 20.7846 13.8059V12.9256C20.7846 12.8606 20.7982 12.8147 20.854 12.8147C21.1254 12.8147 22.1779 12.8246 22.3954 12.8495C22.8152 12.8931 22.9769 13.0594 23.0335 13.2835C23.0638 13.4339 23.0846 13.586 23.0959 13.739C23.0995 13.7737 23.1161 13.8059 23.1423 13.8294C23.1686 13.8528 23.2027 13.8658 23.2382 13.8659C23.3417 13.8659 23.3622 13.7168 23.3622 13.6269C23.3622 13.5485 23.3839 13.0491 23.4064 12.8239C23.4226 12.5464 23.4538 12.2701 23.4998 11.9959C23.4994 11.9689 23.4882 11.9431 23.4686 11.9242C23.449 11.9053 23.4226 11.8948 23.3952 11.895C23.3417 11.895 23.2622 11.9745 23.1823 12.0621C23.0265 12.183 22.8309 12.2429 22.633 12.2304C22.3713 12.2529 21.1157 12.2529 20.8653 12.2529C20.7982 12.2529 20.7846 12.2093 20.7846 12.1294V9.30947C20.7846 9.22993 20.8098 9.19742 20.8653 9.19742C21.094 9.19742 22.2132 9.21884 22.4066 9.24102C22.973 9.30947 23.0971 9.45517 23.1664 9.65938C23.2142 9.81015 23.2424 9.96626 23.2506 10.124C23.2595 10.225 23.3064 10.2911 23.3835 10.2911C23.4201 10.2919 23.4555 10.2784 23.4821 10.2537C23.5087 10.2289 23.5244 10.1949 23.5258 10.1588C23.551 10.0253 23.5723 9.45287 23.584 9.34197C23.5986 9.10372 23.636 8.86737 23.6956 8.63604C23.6975 8.62157 23.6964 8.60689 23.6925 8.59283C23.6886 8.57877 23.6819 8.56561 23.6728 8.5541C23.6637 8.54259 23.6525 8.53296 23.6396 8.52576C23.6267 8.51856 23.6126 8.51393 23.5979 8.51213C23.5926 8.51174 23.5873 8.51174 23.582 8.51213C23.5213 8.51657 23.4615 8.52945 23.4045 8.55037C23.254 8.59242 23.099 8.61655 22.9428 8.62227C22.7268 8.63106 20.081 8.63106 19.7217 8.63106C19.51 8.63106 19.0572 8.59626 18.3237 8.59626C18.1687 8.59626 18.0644 8.65592 18.0644 8.74541C18.069 8.81271 18.1237 8.86548 18.2462 8.88346C18.435 8.90908 18.5443 8.92514 18.7727 8.95994C19.0673 9.00354 19.232 9.31444 19.2379 10.1837C19.2402 10.508 19.2448 11.0005 19.2448 11.833V13.8009C19.2448 14.8254 19.2448 15.6602 19.189 16.1291C19.1425 16.5233 19.0142 16.6488 18.7676 16.6882Z" fill="#162521"/>
<path id="Path 9098" d="M45.5611 16.6882C45.4358 16.7073 45.3451 16.7184 45.1583 16.7444C45.0365 16.7623 44.9807 16.8151 44.9765 16.8836C44.9765 16.9734 45.0765 17.0339 45.237 17.0339C45.9735 17.0339 46.4608 16.9991 46.6737 16.9991C47.3358 16.9991 48.2956 17.0675 50.0176 17.0675C50.4441 17.0675 50.5422 17.0675 50.6216 16.7757C50.6971 16.3495 50.7446 15.9189 50.7639 15.4866C50.7639 15.3757 50.7197 15.2858 50.6333 15.2858C50.5557 15.2904 50.4887 15.3363 50.4662 15.4587C50.462 15.6356 50.4115 15.8085 50.3196 15.9605C50.2277 16.1124 50.0975 16.2384 49.9417 16.326C49.6078 16.44 49.2548 16.4892 48.9019 16.4709C47.739 16.4709 47.6029 16.305 47.5804 15.5352C47.5692 15.2109 47.5804 14.1853 47.5804 13.8063V12.9256C47.5804 12.8606 47.5916 12.8147 47.6475 12.8147C47.9188 12.8147 48.9737 12.8246 49.1888 12.8495C49.611 12.8931 49.7703 13.0594 49.8292 13.2835C49.8583 13.434 49.8781 13.5861 49.8886 13.739C49.893 13.7738 49.9101 13.8059 49.9367 13.8293C49.9633 13.8526 49.9975 13.8657 50.0332 13.8659C50.1355 13.8659 50.156 13.7168 50.156 13.6269C50.156 13.5485 50.1801 13.0491 50.2026 12.8239C50.2174 12.5463 50.2486 12.2699 50.296 11.9959C50.2956 11.9689 50.2844 11.9431 50.2647 11.9242C50.2451 11.9053 50.2187 11.8948 50.1913 11.895C50.1355 11.895 50.056 11.9745 49.9762 12.0621C49.8212 12.183 49.6263 12.2429 49.4292 12.2303C49.1675 12.2529 47.9095 12.2529 47.6603 12.2529C47.592 12.2529 47.5808 12.2093 47.5808 12.1294V9.30947C47.5808 9.22992 47.6037 9.19742 47.6603 9.19742C47.8878 9.19742 49.007 9.21883 49.2004 9.24101C49.7692 9.30947 49.8909 9.45517 49.9626 9.65937C50.0082 9.81066 50.0364 9.96651 50.0467 10.124C50.0537 10.225 50.1002 10.2911 50.1797 10.2911C50.216 10.291 50.2509 10.2773 50.2773 10.2527C50.3037 10.2281 50.3197 10.1946 50.322 10.1588C50.3448 10.0253 50.3662 9.45287 50.3778 9.34197C50.3938 9.10387 50.4312 8.86763 50.4894 8.63603C50.4915 8.62177 50.4906 8.60725 50.4869 8.59331C50.4832 8.57937 50.4768 8.56628 50.468 8.5548C50.4591 8.54333 50.4481 8.53368 50.4355 8.52642C50.4229 8.51917 50.4089 8.51444 50.3945 8.51251C50.3883 8.51194 50.382 8.51194 50.3759 8.51251C50.3159 8.51696 50.2569 8.52983 50.2006 8.55075C50.0502 8.5928 49.8952 8.61693 49.7389 8.62265C49.523 8.63144 46.8748 8.63144 46.5178 8.63144C46.3038 8.63144 45.8534 8.59664 45.1176 8.59664C44.9594 8.59664 44.8582 8.6563 44.8582 8.74579C44.864 8.81309 44.9175 8.86586 45.0424 8.88384C45.2288 8.90946 45.337 8.92552 45.5669 8.96032C45.8615 9.00392 46.0263 9.31482 46.0356 10.184C46.0379 10.5083 46.0425 11.0009 46.0425 11.8334V13.8013C46.0425 14.8258 46.0425 15.6606 45.9867 16.1295C45.9383 16.5233 45.8111 16.6488 45.5611 16.6882Z" fill="#162521"/>
<path id="Path 9099" d="M74.037 16.6859C73.9106 16.705 73.823 16.7184 73.6342 16.7444C73.5125 16.7601 73.4567 16.8128 73.4524 16.8813C73.4524 16.9711 73.5524 17.0316 73.7129 17.0316C74.4495 17.0316 74.9368 16.9991 75.1496 16.9991C75.8117 16.9991 76.7716 17.0675 78.4913 17.0675C78.92 17.0675 79.0177 17.0675 79.0952 16.7734C79.1729 16.3474 79.2212 15.9167 79.2398 15.4843C79.2398 15.3734 79.1957 15.2858 79.1069 15.2858C79.0317 15.2904 78.9646 15.334 78.9421 15.4564C78.938 15.6333 78.8875 15.8062 78.7956 15.9582C78.7037 16.1101 78.5735 16.2361 78.4176 16.3237C78.0839 16.4384 77.7308 16.4882 77.3779 16.4706C76.2149 16.4706 76.0788 16.3023 76.0563 15.5325C76.0463 15.2082 76.0563 14.1826 76.0563 13.8036V12.9256C76.0563 12.8606 76.0676 12.8166 76.1234 12.8166C76.3987 12.8166 77.4496 12.8246 77.6648 12.8491C78.0869 12.8927 78.2463 13.0613 78.3052 13.2831C78.3339 13.4337 78.3541 13.5858 78.3657 13.7386C78.3698 13.7732 78.3865 13.8051 78.4126 13.8284C78.4388 13.8518 78.4727 13.865 78.5079 13.8656C78.6114 13.8656 78.6343 13.7164 78.6343 13.6265C78.6343 13.5501 78.6549 13.051 78.6766 12.8235C78.6924 12.5466 78.7243 12.2708 78.7719 11.9975C78.7709 11.97 78.7593 11.944 78.7394 11.9247C78.7195 11.9055 78.6928 11.8946 78.6649 11.8942C78.6114 11.8942 78.532 11.9737 78.4521 12.0636C78.2958 12.1835 78.1003 12.2425 77.9028 12.2296C77.6434 12.2521 76.3855 12.2521 76.1374 12.2521C76.068 12.2521 76.0567 12.2086 76.0567 12.1286V9.30717C76.0567 9.22763 76.0796 9.19512 76.1374 9.19512C76.3614 9.19512 77.483 9.21769 77.6764 9.23872C78.2451 9.30717 78.368 9.45287 78.4385 9.65708C78.4847 9.80901 78.513 9.96569 78.5227 10.124C78.5316 10.2227 78.5785 10.2911 78.6545 10.2911C78.6912 10.2907 78.7264 10.2766 78.753 10.2516C78.7796 10.2267 78.7957 10.1927 78.7979 10.1565C78.8208 10.0231 78.8433 9.45058 78.8561 9.33968C78.8713 9.1024 78.9079 8.86693 78.9654 8.63603C78.9674 8.62177 78.9665 8.60725 78.9629 8.59331C78.9592 8.57937 78.9527 8.56628 78.9439 8.5548C78.9351 8.54333 78.9241 8.53368 78.9114 8.52642C78.8988 8.51917 78.8849 8.51444 78.8704 8.51251C78.8642 8.51194 78.858 8.51194 78.8518 8.51251C78.7909 8.516 78.731 8.52891 78.6742 8.55075C78.5242 8.59051 78.3701 8.61385 78.2149 8.62035C77.9989 8.62915 75.3508 8.62915 74.9938 8.62915C74.7798 8.62915 74.3293 8.59435 73.5935 8.59435C73.4384 8.59435 73.3342 8.65401 73.3342 8.74349C73.3411 8.81309 73.3954 8.86586 73.5183 8.88384C73.7048 8.90755 73.8141 8.92552 74.0428 8.95803C74.3386 9.00392 74.5022 9.31252 74.508 10.1818C74.5127 10.506 74.5169 10.9986 74.5169 11.8323V13.799C74.5169 14.8258 74.5169 15.6606 74.4588 16.1272C74.4123 16.5203 74.2863 16.6488 74.037 16.6859Z" fill="#162521"/>
<path id="Path 9100" d="M33.9404 10.1501C33.9563 9.22884 34.0955 8.95733 34.4603 8.90914C34.5603 8.89576 34.6343 8.88543 34.7537 8.8709C34.8844 8.85293 34.9336 8.80474 34.9336 8.73514C34.9336 8.63419 34.8324 8.59059 34.6855 8.59059C34.0962 8.59059 33.5675 8.6231 33.4651 8.6231C33.2546 8.6231 32.803 8.59059 32.0695 8.59059C31.9114 8.59059 31.809 8.65216 31.809 8.74356C31.816 8.81086 31.8695 8.86134 31.9932 8.88161C32.1354 8.90073 32.249 8.91641 32.4025 8.94012C32.8154 9.00169 32.9224 9.38793 32.9418 10.1879C32.9441 10.5122 32.9464 13.4094 32.9464 13.4094C32.9464 15.4362 32.2719 16.541 30.7829 16.541C29.0772 16.541 28.5639 15.3482 28.5639 13.3983V11.8327C28.5639 10.1363 28.5639 9.86671 28.5856 9.50877C28.6085 9.11947 28.7279 8.95006 29.0019 8.90838C29.1372 8.88926 29.2171 8.88046 29.3384 8.86249C29.452 8.84451 29.5102 8.79518 29.5102 8.71564C29.5102 8.6361 29.4167 8.58447 29.2473 8.58447C28.8415 8.58447 28.1281 8.62616 27.8576 8.62616C27.5176 8.62616 26.7333 8.58447 26.1356 8.58447C25.965 8.58447 25.903 8.64604 25.903 8.72482C25.903 8.8036 25.9541 8.85369 26.0782 8.87167C26.2332 8.89538 26.3534 8.91526 26.4693 8.92903C26.8423 8.97721 27.0121 9.18486 27.038 9.59099C27.0621 9.94778 27.0586 10.1363 27.0586 11.8327V13.4629C27.0586 15.0798 27.4873 15.9077 28.0665 16.4205C28.7585 16.9638 29.6304 17.2341 30.5131 17.1789C31.365 17.2 32.1961 16.9176 32.8542 16.3834C33.8051 15.5857 33.9346 14.2649 33.9346 13.0239V11.8327C33.935 11.0824 33.9373 10.4732 33.9404 10.1501Z" fill="#162521"/>
<path id="Path 9101" d="M38.7827 9.29262C38.7827 9.1691 38.8045 9.12551 38.8828 9.10409C39.0068 9.08416 39.1325 9.0766 39.258 9.08153C40.2307 9.08153 40.673 9.99933 40.673 10.7477C40.691 10.9667 40.6585 11.1869 40.5779 11.3918C40.4974 11.5966 40.3708 11.7808 40.2078 11.9305C39.9738 12.101 39.6827 12.1772 39.3937 12.1435C39.2159 12.1497 39.038 12.1381 38.8626 12.1087C38.8161 12.0999 38.7831 12.0751 38.7831 11.9875L38.7827 9.29262ZM41.3801 15.0801C41.3975 15.2504 41.3806 15.4225 41.3306 15.5864C41.2806 15.7504 41.1983 15.903 41.0884 16.0355C40.9786 16.1681 40.8434 16.278 40.6905 16.359C40.5376 16.44 40.37 16.4905 40.1973 16.5076C40.1342 16.514 40.0707 16.5158 40.0074 16.513C39.7238 16.526 39.4406 16.4805 39.1758 16.3795C38.8141 16.2327 38.7812 16.0419 38.7812 15.3034V12.7183C38.7812 12.6609 38.8029 12.6388 38.8471 12.6388C39.0188 12.6388 39.1316 12.6388 39.3363 12.6498C39.6704 12.6429 39.9988 12.7363 40.278 12.9175C40.6287 13.16 40.9131 13.4844 41.1058 13.8618C41.2984 14.2392 41.3933 14.6577 41.382 15.0801H41.3801ZM37.3007 15.4843C37.3007 16.3784 37.1871 16.6568 36.8855 16.695C36.7525 16.7096 36.6502 16.7229 36.4727 16.7467C36.3474 16.7623 36.2939 16.8151 36.2873 16.8836C36.2873 16.9757 36.3897 17.0338 36.5502 17.0338C37.2829 17.0338 37.814 16.9956 38.0256 16.9956C38.3656 16.9956 39.6011 17.0572 39.874 17.0572C41.96 17.0572 42.8978 15.8139 42.8978 14.6178C42.8978 13.3095 41.767 12.5183 40.8378 12.2085C41.453 11.7248 41.9821 11.176 41.9821 10.2628C41.9821 9.6716 41.6228 8.5863 39.5763 8.5863C39.1917 8.5863 38.4854 8.6211 37.9326 8.6211C37.7186 8.6211 37.1286 8.5886 36.3924 8.5886C36.2373 8.5886 36.1331 8.65017 36.1331 8.74156C36.1377 8.80887 36.19 8.86164 36.3149 8.87962C36.5037 8.90333 36.613 8.9213 36.8394 8.9538C37.1375 8.99969 37.3081 9.30295 37.3081 10.1722C37.3081 10.4965 37.3104 10.9879 37.3104 11.8273V13.7795L37.3007 15.4843Z" fill="#162521"/>
<path id="Path 9102" d="M55.6353 9.32175C55.6353 9.23418 55.6605 9.18829 55.7377 9.16879C55.934 9.12945 56.1345 9.11404 56.3347 9.1229C57.0034 9.1229 58.0636 9.5818 58.0636 11.1627C58.0636 12.0782 57.7372 12.591 57.3972 12.8369C57.1644 12.9971 56.8786 13.0645 56.5975 13.0254C56.3069 13.0292 56.0173 12.9915 55.7377 12.9134C55.6601 12.8809 55.6353 12.8369 55.6353 12.7126V9.32175ZM54.1893 13.7887C54.1893 15.4863 54.1893 15.7566 54.1664 16.1134C54.1447 16.5039 54.0242 16.6699 53.7513 16.7115C53.616 16.7341 53.5353 16.7429 53.4136 16.7574C53.3 16.7754 53.2454 16.8282 53.2454 16.9066C53.2454 16.985 53.3365 17.0354 53.5047 17.0354C53.9118 17.0354 54.6092 16.9972 54.8798 16.9972C55.2197 16.9972 55.9652 17.0354 56.5642 17.0354C56.7324 17.0354 56.7929 16.9769 56.7929 16.8951C56.7929 16.8133 56.7417 16.7662 56.6188 16.7483C56.4637 16.7268 56.3412 16.7066 56.2288 16.692C55.8559 16.6438 55.6861 16.4373 55.6601 16.0324C55.6349 15.6721 55.6349 13.6167 55.6349 13.6167C55.6349 13.5516 55.6702 13.5268 55.7283 13.5268L56.7099 13.5516C56.7474 13.5472 56.7854 13.5519 56.8207 13.5652C56.8559 13.5785 56.8874 13.6001 56.9123 13.6281C57.0611 13.7952 57.581 14.557 58.0326 15.1754C58.663 16.037 59.0941 16.5601 59.5806 16.8171C59.9833 16.9949 60.4253 17.0686 60.8649 17.0312H62.0446C62.1799 17.0312 62.2597 17.0098 62.2597 16.9203C62.2597 16.863 62.2132 16.8282 62.1244 16.8282C62.0178 16.8263 61.9115 16.8151 61.8069 16.7945C61.3102 16.6906 60.8638 16.4235 60.5408 16.037C59.8744 15.3436 59.0941 14.3517 58.0873 13.1038C59.2293 12.1906 59.5786 11.4296 59.5786 10.6063C59.5781 10.3102 59.5084 10.0183 59.3751 9.75301C59.2418 9.48775 59.0484 9.25632 58.8099 9.07663C58.1824 8.71145 57.4573 8.54276 56.7305 8.59287C56.3816 8.59287 55.2085 8.62767 54.8239 8.62767C54.6111 8.62767 54.0005 8.59517 53.2643 8.59517C53.1093 8.59517 53.005 8.65559 53.005 8.74545C53.012 8.81391 53.0643 8.86668 53.1891 8.88465C53.3756 8.91028 53.4849 8.92634 53.7137 8.96114C54.0083 9.00473 54.1789 9.32022 54.1847 10.1933C54.187 10.5153 54.187 11.0124 54.187 11.8315L54.1893 13.7887Z" fill="#162521"/>
<path id="Path 9103" d="M110.049 16.6817C109.922 16.6985 109.836 16.7119 109.647 16.739C109.524 16.7559 109.468 16.8086 109.462 16.8748C109.462 16.967 109.564 17.0251 109.725 17.0251C110.461 17.0251 110.948 16.9926 111.162 16.9926C111.825 16.9926 112.783 17.061 114.505 17.061C114.932 17.061 115.03 17.061 115.107 16.767C115.184 16.3413 115.231 15.911 115.249 15.479C115.249 15.3688 115.207 15.2794 115.119 15.2794C115.041 15.2862 114.976 15.3298 114.955 15.4499C114.949 15.6271 114.898 15.8 114.807 15.9523C114.715 16.1047 114.585 16.2314 114.43 16.3207C114.096 16.4336 113.743 16.4824 113.39 16.4645C112.227 16.4645 112.09 16.2985 112.066 15.5275C112.055 15.2044 112.066 14.1788 112.066 13.7994V12.9199C112.066 12.8548 112.079 12.809 112.135 12.809C112.406 12.809 113.459 12.8189 113.677 12.8415C114.099 12.8874 114.259 13.0537 114.314 13.2778C114.343 13.4276 114.364 13.5789 114.377 13.731C114.38 13.7657 114.397 13.7979 114.423 13.8214C114.449 13.8448 114.483 13.8578 114.519 13.8579C114.624 13.8579 114.643 13.7111 114.643 13.6212C114.643 13.5447 114.666 13.0434 114.687 12.8181C114.704 12.5407 114.735 12.2644 114.781 11.9902C114.78 11.9632 114.769 11.9374 114.749 11.9185C114.73 11.8995 114.703 11.889 114.676 11.8893C114.624 11.8893 114.543 11.9688 114.463 12.0564C114.308 12.1775 114.112 12.2367 113.915 12.2223C113.652 12.2472 112.398 12.2472 112.146 12.2472C112.079 12.2472 112.066 12.2036 112.066 12.1237V9.30068C112.066 9.2242 112.091 9.18864 112.146 9.18864C112.375 9.18864 113.494 9.21349 113.687 9.23453C114.256 9.30069 114.377 9.44753 114.449 9.65098C114.496 9.80282 114.523 9.95959 114.531 10.1179C114.54 10.2189 114.587 10.285 114.665 10.285C114.702 10.2847 114.737 10.2707 114.763 10.246C114.79 10.2212 114.806 10.1874 114.808 10.1516C114.829 10.0169 114.857 9.44791 114.865 9.33587C114.881 9.09785 114.919 8.86168 114.976 8.62993C114.978 8.61566 114.977 8.60114 114.974 8.5872C114.97 8.57326 114.964 8.56018 114.955 8.5487C114.946 8.53722 114.935 8.52758 114.922 8.52032C114.91 8.51306 114.896 8.50834 114.881 8.50641C114.875 8.50584 114.869 8.50584 114.863 8.50641C114.802 8.5099 114.742 8.5228 114.685 8.54465C114.535 8.58633 114.38 8.61045 114.223 8.61654C114.009 8.62534 111.362 8.62534 111.002 8.62534C110.791 8.62534 110.34 8.5871 109.604 8.5871C109.449 8.5871 109.345 8.64867 109.345 8.74006C109.35 8.80737 109.406 8.86014 109.529 8.87812C109.716 8.90374 109.825 8.9198 110.054 8.9546C110.35 8.9982 110.513 9.31025 110.519 10.1783C110.521 10.5003 110.528 10.9952 110.528 11.8265V13.7967C110.528 14.8201 110.526 15.6549 110.47 16.1237C110.426 16.5169 110.296 16.6423 110.049 16.6817Z" fill="#162521"/>
<path id="Path 9104" d="M102.916 9.29847C102.916 9.17265 102.937 9.12906 103.017 9.10726C103.14 9.08695 103.266 9.07939 103.391 9.0847C104.364 9.0847 104.806 10.0025 104.806 10.7509C104.824 10.9703 104.791 11.1908 104.711 11.396C104.63 11.6013 104.504 11.786 104.341 11.9364C104.106 12.1057 103.815 12.1812 103.527 12.1475C103.348 12.1527 103.17 12.1418 102.993 12.115C102.949 12.1039 102.916 12.0813 102.916 11.9914V9.29847ZM105.513 15.0859C105.532 15.2719 105.51 15.4597 105.448 15.6366C105.387 15.8135 105.288 15.9753 105.158 16.1112C105.028 16.247 104.87 16.3537 104.694 16.424C104.518 16.4944 104.33 16.5267 104.14 16.5188C103.857 16.5307 103.575 16.4844 103.311 16.3831C102.947 16.2382 102.914 16.0477 102.914 15.3093V12.7218C102.914 12.6668 102.936 12.6454 102.98 12.6454C103.152 12.6454 103.267 12.6454 103.469 12.6565C103.804 12.6484 104.132 12.7418 104.411 12.9241C104.762 13.1664 105.046 13.4907 105.239 13.8679C105.432 14.2452 105.526 14.6637 105.515 15.0859H105.513ZM101.434 15.4879C101.432 16.3842 101.318 16.6626 101.017 16.6986C100.885 16.7154 100.781 16.7288 100.602 16.7502C100.481 16.7659 100.425 16.821 100.421 16.8883C100.421 16.9793 100.521 17.0412 100.681 17.0412C101.418 17.0412 101.945 17.003 102.159 17.003C102.495 17.003 103.731 17.0668 104.002 17.0668C106.091 17.0668 107.03 15.8213 107.03 14.6274C107.03 13.3192 105.898 12.5241 104.968 12.2182C105.583 11.7345 106.115 11.188 106.115 10.2725C106.115 9.68356 105.753 8.59827 103.707 8.59827C103.322 8.59827 102.616 8.63077 102.06 8.63077C101.846 8.63077 101.258 8.60056 100.523 8.60056C100.364 8.60056 100.263 8.66022 100.263 8.7497C100.269 8.81701 100.323 8.86978 100.445 8.88775C100.634 8.91338 100.74 8.92944 100.97 8.96424C101.267 9.00783 101.438 9.31338 101.438 10.1826C101.438 10.5069 101.443 10.996 101.443 11.8354V13.7899L101.434 15.4879Z" fill="#162521"/>
<path id="Path 9105" d="M70.736 13.773C70.7577 13.3826 70.8783 13.2143 71.1512 13.1749C71.2865 13.1523 71.3838 13.1401 71.504 13.1221C71.6176 13.1042 71.6757 13.0537 71.6757 12.9753C71.6757 12.8969 71.5823 12.8441 71.4129 12.8441C71.007 12.8441 70.2937 12.8858 70.0231 12.8858C69.6831 12.8858 68.8989 12.8441 68.3011 12.8441C68.1305 12.8441 68.0685 12.9057 68.0685 12.9845C68.0685 13.0632 68.1197 13.1133 68.2437 13.1313C68.4019 13.1527 68.5213 13.173 68.6349 13.1887C69.0078 13.2369 69.1776 13.4422 69.2036 13.8495C69.2253 14.2074 69.223 14.3466 69.223 16.0453C69.2353 16.1266 69.2209 16.2096 69.182 16.2822C69.1431 16.3549 69.0816 16.4134 69.0067 16.4491C68.6841 16.5513 68.345 16.5928 68.0069 16.5715C65.6169 16.5715 64.2008 14.8277 64.2008 12.43C64.2008 11.1565 64.6218 10.2969 65.2451 9.76071C65.8979 9.25542 66.7142 9.00067 67.5428 9.04368C67.9619 9.01817 68.3818 9.07857 68.7761 9.22106C69.1703 9.36355 69.5304 9.58505 69.8336 9.87161C70.0494 10.1562 70.1972 10.4852 70.2658 10.8341C70.291 10.9194 70.3193 11.0227 70.4468 11.0227C70.5593 11.0227 70.6221 10.924 70.6221 10.7466C70.6117 10.1262 70.6382 9.50574 70.7015 8.88842C70.7015 8.80887 70.6775 8.7649 70.5465 8.75381C70.2929 8.74157 69.8925 8.6888 69.6525 8.654C68.9555 8.52621 68.2489 8.45637 67.5401 8.4452C66.4744 8.40076 65.4174 8.65252 64.4896 9.17179C63.8731 9.56258 63.3684 10.1028 63.0239 10.7409C62.6794 11.3789 62.5065 12.0934 62.5218 12.8162C62.5218 15.8939 65.0994 17.1841 67.8716 17.1841C68.8022 17.1944 69.7259 17.0255 70.591 16.687C70.7333 16.6208 70.7356 16.5838 70.7356 16.2832L70.736 13.773Z" fill="#162521"/>
<path id="Path 9106" d="M84.0798 9.32631C84.0798 9.23644 84.1004 9.19285 84.1799 9.16914C84.377 9.13019 84.5783 9.11517 84.7792 9.12439C85.4456 9.12439 86.5082 9.58329 86.5082 11.1653C86.5082 12.0785 86.1794 12.5914 85.8418 12.8373C85.6071 12.9971 85.3202 13.0644 85.0378 13.0258C84.7479 13.0307 84.4588 12.9929 84.1802 12.9137C84.1008 12.8812 84.0802 12.8373 84.0802 12.7153L84.0798 9.32631ZM82.6304 13.7948C82.6304 15.4901 82.6304 15.7608 82.6075 16.1176C82.5858 16.5104 82.4652 16.6763 82.1923 16.718C82.057 16.7406 81.9764 16.7459 81.8546 16.7639C81.7411 16.7819 81.6841 16.8323 81.6841 16.9107C81.6841 16.9891 81.7775 17.0419 81.9481 17.0419C82.352 17.0419 83.0502 17.0002 83.3208 17.0002C83.6608 17.0002 84.4063 17.0419 85.004 17.0419C85.1734 17.0419 85.2339 16.9803 85.2339 16.9016C85.2339 16.8228 85.1851 16.7727 85.0599 16.7547C84.9048 16.7333 84.7823 16.7111 84.6699 16.6985C84.2958 16.6503 84.1271 16.4415 84.0988 16.0365C84.076 15.6786 84.0783 13.6231 84.0783 13.6231C84.0783 13.5558 84.1112 13.5333 84.1671 13.5333L85.151 13.5558C85.1884 13.5514 85.2265 13.5561 85.2617 13.5694C85.297 13.5827 85.3284 13.6043 85.3533 13.6323C85.5022 13.7983 86.022 14.5635 86.4748 15.1796C87.104 16.0411 87.5328 16.5452 88.0193 16.801C88.4226 16.9882 88.868 17.0697 89.3125 17.0377H90.4422C90.5775 17.0377 90.6527 16.9826 90.6527 16.8909C90.6527 16.8323 90.6038 16.78 90.5104 16.7685C90.4104 16.7574 90.2534 16.7383 90.1228 16.7226C89.8902 16.6947 89.5541 16.635 88.9819 16.0415C88.3155 15.3505 87.5328 14.3589 86.526 13.1084C87.6704 12.1952 88.0193 11.4365 88.0193 10.6108C88.0185 10.3148 87.9488 10.0229 87.8155 9.7577C87.6822 9.49247 87.4889 9.26101 87.2506 9.08118C86.6235 8.71714 85.8992 8.54927 85.1734 8.59972C84.8218 8.59972 83.6468 8.63452 83.265 8.63452C83.0521 8.63452 82.4416 8.60202 81.7054 8.60202C81.5472 8.60202 81.446 8.66052 81.446 8.7523C81.4495 8.82076 81.5054 8.87353 81.6279 8.89036C81.8167 8.91521 81.9248 8.9328 82.1543 8.96684C82.4489 9.01273 82.616 9.32822 82.6253 10.199C82.6276 10.5233 82.6276 11.0204 82.6276 11.8372L82.6304 13.7948Z" fill="#162521"/>
<path id="Path 9107" d="M141.591 13.624C141.545 13.624 141.531 13.5892 141.545 13.5475L142.648 10.6614C142.662 10.6155 142.695 10.5604 142.729 10.5604C142.763 10.5604 142.795 10.604 142.813 10.6614L143.872 13.5586C143.883 13.5911 143.872 13.6259 143.817 13.6259L141.591 13.624ZM144.034 14.2511C144.059 14.2491 144.084 14.2558 144.105 14.2701C144.126 14.2844 144.141 14.3054 144.147 14.3295L144.964 16.4638C145.022 16.5984 144.978 16.686 144.856 16.7139C144.821 16.7195 144.789 16.737 144.766 16.7634C144.742 16.7898 144.729 16.8234 144.728 16.8584C144.728 16.9663 144.849 17.0011 145.051 17.0053C145.408 17.0122 145.766 17.0053 146.106 17.0099C146.635 17.0168 147.089 17.0267 147.339 17.0267C147.589 17.0267 147.663 16.9326 147.663 16.8355C147.663 16.7716 147.621 16.7097 147.511 16.6963C147.428 16.6863 147.379 16.6841 147.243 16.6661C147.006 16.6382 146.674 16.5605 146.241 15.5441C145.508 13.8263 143.662 9.23423 143.406 8.6063C143.302 8.34473 143.178 8.24377 143.049 8.24377C142.914 8.24377 142.821 8.3715 142.694 8.69579L139.825 15.7368C139.598 16.3024 139.351 16.6424 138.869 16.6986C138.78 16.7097 138.745 16.712 138.616 16.7322C138.579 16.7338 138.544 16.7492 138.519 16.7753C138.493 16.8015 138.478 16.8363 138.478 16.8726C138.478 16.9647 138.556 17.0255 138.702 17.0255C139.296 17.0255 139.802 16.9907 139.93 16.9907C140.282 16.9907 140.793 17.0198 141.158 17.0255C141.298 17.0278 141.373 16.9716 141.373 16.8798C141.373 16.8114 141.313 16.7429 141.198 16.7269L140.991 16.6955C140.673 16.6393 140.573 16.4879 140.573 16.286C140.583 16.0964 140.627 15.91 140.704 15.736L141.256 14.3379C141.277 14.2695 141.3 14.2481 141.359 14.2481L144.034 14.2511Z" fill="#162521"/>
<path id="Path 9108" d="M156.927 10.3015L156.827 16.8129C156.827 17.045 156.722 17.162 156.589 17.162C156.423 17.1357 156.273 17.0469 156.171 16.9142C155.456 16.2454 154.107 14.8756 152.935 13.7276C151.699 12.5226 150.466 11.1547 150.264 10.9447H150.196L150.338 15.4431C150.36 16.3138 150.515 16.6179 150.811 16.6615C151.038 16.6974 151.149 16.7142 151.336 16.741C151.457 16.7555 151.513 16.8083 151.518 16.8768C151.518 16.9666 151.418 17.0271 151.259 17.0271C150.523 17.0271 150.074 16.9945 149.864 16.9945C149.759 16.9945 149.365 17.0271 148.775 17.0271C148.598 17.0271 148.517 16.9731 148.517 16.8741C148.517 16.7888 148.582 16.7429 148.684 16.7291C148.773 16.7181 148.843 16.7089 148.956 16.6966C149.284 16.6542 149.427 16.2928 149.438 15.3222L149.5 8.78525C149.503 8.50685 149.554 8.40283 149.682 8.40283C149.798 8.40283 149.917 8.5363 150.108 8.7405C150.244 8.88506 151.976 10.6816 153.63 12.2996C154.398 13.0572 155.878 14.6201 156.075 14.7972H156.146L156.027 10.1753C156.004 9.30801 155.851 9.00284 155.553 8.95695C155.324 8.92445 155.216 8.90647 155.029 8.88047C154.905 8.86479 154.851 8.81202 154.847 8.74242C154.847 8.65255 154.947 8.59328 155.104 8.59328C155.84 8.59328 156.29 8.62578 156.506 8.62578C156.606 8.62578 157.136 8.59328 157.721 8.59328C157.87 8.59328 157.971 8.63687 157.971 8.73783C157.971 8.80513 157.899 8.85561 157.789 8.87129C157.631 8.895 157.544 8.9038 157.377 8.92865C157.073 8.97225 156.944 9.33095 156.927 10.3015Z" fill="#162521"/>
<path id="Path 9109" d="M119.918 9.32633C119.918 9.23646 119.94 9.19287 120.02 9.16916C120.217 9.13021 120.417 9.11519 120.617 9.12441C121.284 9.12441 122.346 9.58331 122.346 11.1654C122.346 12.0786 122.019 12.5914 121.68 12.8373C121.446 12.9978 121.16 13.0652 120.878 13.0258C120.588 13.0307 120.299 12.993 120.02 12.9138C119.94 12.8813 119.918 12.8373 119.918 12.7153V9.32633ZM125.965 16.7245C125.733 16.6966 125.397 16.637 124.823 16.0434C124.155 15.3524 123.375 14.3608 122.369 13.1103C123.511 12.1971 123.862 11.4384 123.862 10.6128C123.861 10.3167 123.791 10.0249 123.658 9.75963C123.525 9.49441 123.332 9.26294 123.093 9.08311C122.465 8.71911 121.74 8.55126 121.014 8.60165C120.665 8.60165 119.49 8.63645 119.105 8.63645C118.894 8.63645 118.283 8.60395 117.548 8.60395C117.39 8.60395 117.288 8.66246 117.288 8.75424C117.292 8.82269 117.348 8.87546 117.469 8.89229C117.658 8.91714 117.765 8.93474 117.996 8.96877C118.289 9.01466 118.459 9.33015 118.467 10.2009C118.469 10.5252 118.469 11.0223 118.469 11.8392L118.474 13.7948C118.474 15.4901 118.474 15.7608 118.45 16.1176C118.427 16.5104 118.305 16.6763 118.035 16.718C117.898 16.7406 117.819 16.7459 117.697 16.7639C117.583 16.7819 117.525 16.8324 117.525 16.9108C117.525 16.9892 117.619 17.0419 117.788 17.0419C118.194 17.0419 118.891 17.0002 119.163 17.0002C119.501 17.0002 120.249 17.0419 120.844 17.0419C121.016 17.0419 121.077 16.9804 121.077 16.9016C121.077 16.8228 121.026 16.7727 120.904 16.7547C120.746 16.7333 120.624 16.7111 120.511 16.6985C120.138 16.6503 119.968 16.4415 119.942 16.0366C119.918 15.6786 119.92 13.6231 119.92 13.6231C119.92 13.5558 119.953 13.5333 120.011 13.5333L120.995 13.5558C121.033 13.5514 121.071 13.5561 121.106 13.5694C121.141 13.5827 121.173 13.6043 121.198 13.6323C121.346 13.7983 121.866 14.5635 122.317 15.1796C122.948 16.0412 123.379 16.5452 123.867 16.801C124.269 16.9887 124.714 17.0703 125.157 17.0377H126.217C126.579 17.0377 127.408 16.996 127.623 16.996C128.019 16.996 128.457 17.0343 128.93 17.0343C129.099 17.0343 129.192 16.9815 129.192 16.8813C129.192 16.824 129.164 16.7712 128.97 16.7433L128.539 16.6771C128.219 16.622 128.157 16.4641 128.157 16.2767C128.157 16.1185 128.167 15.9604 128.185 15.8033L128.718 11.451H128.795C129.191 12.2858 129.839 13.6927 129.94 13.9275C130.074 14.2384 131.009 16.027 131.282 16.5398C131.466 16.892 131.529 17.0236 131.636 17.0236C131.752 17.0236 131.76 16.9957 131.995 16.5096L134.515 11.3279H134.593L135.236 16.1872C135.282 16.4993 135.25 16.6194 135.164 16.6542C135.086 16.6878 135.022 16.7226 135.022 16.7968C135.022 16.9023 135.129 16.9394 135.386 16.9616C135.84 16.9941 137.294 17.0289 137.576 17.0289C137.735 17.0289 137.826 16.9685 137.826 16.8786C137.827 16.839 137.812 16.8006 137.785 16.7711C137.758 16.7417 137.721 16.7235 137.681 16.7203C137.541 16.6924 137.436 16.6698 137.268 16.635C136.931 16.562 136.753 16.258 136.651 15.5566L135.624 8.68617C135.591 8.38979 135.42 8.34849 135.318 8.34849C135.216 8.34849 135.113 8.43836 135.033 8.61618L132.048 14.9176L129.088 8.7225C128.942 8.43301 128.846 8.34314 128.673 8.34314C128.554 8.34314 128.475 8.44639 128.449 8.63722L127.278 15.8649C127.221 16.2442 127.181 16.6255 126.792 16.6928C126.519 16.7412 126.241 16.7519 125.965 16.7245Z" fill="#162521"/>
</g>
</g>
</g>
<defs>
<clipPath id="clip0_19_463">
<rect width="164" height="26" fill="white"/>
</clipPath>
</defs>
</svg>
